<?xml version="1.0" encoding="iso-8859-1"?>
<!DOCTYPE svg PUBLIC "-//W3C//DTD SVG 1.1//EN" "http://www.w3.org/Graphics/SVG/1.1/DTD/svg11.dtd">
<svg 
 version="1.1" xmlns="http://www.w3.org/2000/svg" xmlns:xlink="http://www.w3.org/1999/xlink" x="0px" y="0px" width="512px"
	 height="512px" viewBox="0 0 512 512" style="enable-background:new 0 0 512 512;" xml:space="preserve"
><g id="7935ec95c421cee6d86eb22ecd14a34c"><g></g><g fill="#555555"><path style="display: inline; fill-rule: evenodd; clip-rule: evenodd;" d="M339.126,287.774c0,21.795-18.205,50.697-51.259,81.382
		c-21.365,19.832-42.657,34.803-54.179,42.295c-11.411-7.5-32.444-22.456-53.544-42.254c-32.688-30.674-50.689-59.591-50.689-81.423
		c0-32.048,26.233-58.123,58.485-58.123c12.302,0,24.108,3.797,34.137,10.986l12.214,8.749l12.213-8.749
		c10.028-7.189,21.835-10.986,34.141-10.986C312.893,229.651,339.126,255.727,339.126,287.774z M473.648,132.981v75.704
		c0,10.409-6.813,24.035-15.141,30.282l-41.638,31.228v201.879c0,21.684-17.033,39.427-37.852,39.427H76.203
		c-20.818,0-37.852-17.743-37.852-39.427V77.782c0-21.688,17.033-39.43,37.852-39.43L379.019,0.5
		c20.818,0,37.852,16.165,37.852,37.852v37.852H95.129c-10.409,0-18.926,8.517-18.926,18.926c0,10.41,8.517,18.926,18.926,18.926
		H416.87h37.853C465.132,114.056,473.648,122.572,473.648,132.981z M360.093,287.774c0-43.61-35.642-79.089-79.448-79.089
		c-16.76,0-32.902,5.271-46.354,14.908c-13.452-9.636-29.595-14.908-46.351-14.908c-43.814,0-79.452,35.479-79.452,79.089
		c0,70.81,122.225,148.021,125.148,148.021C236.553,435.796,360.093,358.584,360.093,287.774z"></path></g></g></svg>