<?xml version="1.0" encoding="UTF-8" standalone="no"?>
<svg width="60px" height="60px" viewBox="0 0 60 60" version="1.1" xmlns="http://www.w3.org/2000/svg" xmlns:xlink="http://www.w3.org/1999/xlink" xmlns:sketch="http://www.bohemiancoding.com/sketch/ns">
    <!-- Generator: Sketch 3.2.2 (9983) - http://www.bohemiancoding.com/sketch -->
    <title>Viber</title>
    <desc>Created with Sketch.</desc>
    <defs></defs>
    <g id="stroked" stroke="none" stroke-width="1" fill="none" fill-rule="evenodd" sketch:type="MSPage">
        <g id="Brands" sketch:type="MSLayerGroup" transform="translate(3.000000, -716.000000)" stroke="#44c930" stroke-width="2" stroke-linecap="round" stroke-linejoin="round">
            <g id="Viber" transform="translate(3.000000, 722.000000)" sketch:type="MSShapeGroup">
                <path d="M18.0839976,45 L28.0010785,45 C37.9347729,45 46,36.9431954 46,27.0046233 L46,17.9953767 C46,8.0580801 37.9416084,0 28.0010785,0 L17.9989215,0 C8.06522712,0 0,8.0568046 0,17.9953767 L0,27.0046233 C0,34.8391862 5.00888907,41.5056765 12,43.9761478 L12,50.5108644 L18.0839976,45 Z" id="Rectangle-2711"></path>
                <path d="M18.3522151,18.3530346 C19.1909956,17.6238939 19.2722396,16.3657896 18.5469521,15.5314417 L13.7385432,10 L10.7197049,12.6242361 C9.05583902,14.0706126 9.17635926,16.0874061 10,18.353035 C10,18.353035 12.5000001,22.8507652 16.5000001,26.9253826 C20.5000001,31 27.9610971,34.8636585 27.9610971,34.8636585 C29.8128048,36.0661716 32.2917316,35.5352886 33.4924667,33.6863187 L35.6710228,30.3316365 L29.5242115,26.3398506 C28.5970429,25.7377402 27.3624894,25.9932879 26.7571803,26.9253822 L26.0485327,28.0166038 C23.0610819,27.0203606 19.1624704,26.0407212 17.1246258,19.4201618 L18.3522151,18.3530346 Z" id="Rectangle-2712"></path>
                <path d="M28.7941362,20.0041381 C28.2778517,18.1732479 26.8373767,16.7298166 25.0082357,16.2093688" id="Oval-1957"></path>
                <path d="M32.8929502,20.2187392 C31.8019876,16.3498784 28.7581147,13.2997585 24.8929502,12.1999984" id="Oval-1957"></path>
                <path d="M37.5380607,20.6507598 C35.7548658,14.3270481 30.7796092,9.34158079 24.4619393,7.54400632" id="Oval-1957"></path>
            </g>
        </g>
    </g>
</svg>