<?xml version="1.0" encoding="UTF-8" standalone="no"?>
<svg width="60px" height="60px" viewBox="0 0 60 60" version="1.1" xmlns="http://www.w3.org/2000/svg" xmlns:xlink="http://www.w3.org/1999/xlink" xmlns:sketch="http://www.bohemiancoding.com/sketch/ns">
    <!-- Generator: Sketch 3.2.2 (9983) - http://www.bohemiancoding.com/sketch -->
    <title>Whatsup</title>
    <desc>Created with Sketch.</desc>
    <defs></defs>
    <g id="stroked" stroke="none" stroke-width="1" fill="none" fill-rule="evenodd" sketch:type="MSPage">
        <g id="Brands" sketch:type="MSLayerGroup" transform="translate(-837.000000, -596.000000)" stroke="#535353" stroke-width="2" stroke-linecap="round" stroke-linejoin="round">
            <g id="Whatsup" transform="translate(843.000000, 601.000000)" sketch:type="MSShapeGroup">
                <path d="M4.02185118,38.6038351 C1.47780291,34.6887544 0,30.0169569 0,25 C0,11.1928813 11.1928813,0 25,0 C38.8071187,0 50,11.1928813 50,25 C50,38.8071187 38.8071187,50 25,50 C20.1280879,50 15.5816659,48.6064111 11.7376181,46.1961175 L1,49.5 C1,49.5 3.02092505,42.0892995 4.02185118,38.6038351 Z" id="Oval-1956"></path>
                <path d="M13,10 C13,10 7.50000002,15.5000008 10,22 C12.5,28.4999992 19.5,37.9999992 29.4999997,39.4999992 C39.4999995,40.9999992 40.9999995,34.9999992 41.5,32 C38.3066625,30.2259237 35.9999995,28.4999992 34.9999995,27.9999992 C33.9999995,27.4999992 33.4999995,27.9999992 33.4999995,27.9999992 C33.4999995,27.9999992 30.5000003,32.5 29,32.5 C27.4999997,32.5 17.0000003,25.5 17,21 C18.9999997,19 19.5000003,18 19.5,17 C19.4999997,16 16.4999998,10.5 16,10 C15.5000002,9.5 13,10 13,10 Z" id="Path-6048"></path>
            </g>
        </g>
    </g>
</svg>